HIERARCHY
ROOT Armature
{
  OFFSET 1.9679 50.7869 13.0653
  CHANNELS 6 Xposition Yposition Zposition Zrotation Xrotation Yrotation
  JOINT Core
  {
    OFFSET -0.635206 16.8572 -51.0592
    CHANNELS 6 Xposition Yposition Zposition Zrotation Xrotation Yrotation
    JOINT FrontLegIK.L
    {
      OFFSET 10.7636 40.3514 -10.2983
      CHANNELS 6 Xposition Yposition Zposition Zrotation Xrotation Yrotation
      JOINT FrontPaw.L
      {
        OFFSET 0 1.73155e-005 0
        CHANNELS 6 Xposition Yposition Zposition Zrotation Xrotation Yrotation
        End Site
        {
          OFFSET 0 4.33935 0
        }
      }
      JOINT FrontLegIKPole.L
      {
        OFFSET 0 27.4489 11.7029
        CHANNELS 6 Xposition Yposition Zposition Zrotation Xrotation Yrotation
        End Site
        {
          OFFSET 0 6.85387 0
        }
      }
    }
    JOINT BackLegIK.L
    {
      OFFSET 14.1749 -5.27545 -3.7701
      CHANNELS 6 Xposition Yposition Zposition Zrotation Xrotation Yrotation
      JOINT BackPaw.L
      {
        OFFSET 0 -1.20246e-005 1.26259e-005
        CHANNELS 6 Xposition Yposition Zposition Zrotation Xrotation Yrotation
        End Site
        {
          OFFSET 0 4.80673 0
        }
      }
      JOINT BackLegIKPole.L
      {
        OFFSET 0.227833 17.573 11.6015
        CHANNELS 6 Xposition Yposition Zposition Zrotation Xrotation Yrotation
        End Site
        {
          OFFSET 0 5.63838 0
        }
      }
    }
    JOINT BackLegIK.R
    {
      OFFSET -12.9044 -19.1551 -5.86817
      CHANNELS 6 Xposition Yposition Zposition Zrotation Xrotation Yrotation
      JOINT BackPaw.R
      {
        OFFSET 0 0 0
        CHANNELS 6 Xposition Yposition Zposition Zrotation Xrotation Yrotation
        End Site
        {
          OFFSET 0 4.80673 0
        }
      }
      JOINT BackLegIKPole.R
      {
        OFFSET -0.227834 17.573 11.6014
        CHANNELS 6 Xposition Yposition Zposition Zrotation Xrotation Yrotation
        End Site
        {
          OFFSET 0 5.63838 0
        }
      }
    }
    JOINT FrontLegIK.R
    {
      OFFSET -9.4932 30.6679 -2.7129
      CHANNELS 6 Xposition Yposition Zposition Zrotation Xrotation Yrotation
      JOINT FrontPaw.R
      {
        OFFSET 0 0 0
        CHANNELS 6 Xposition Yposition Zposition Zrotation Xrotation Yrotation
        End Site
        {
          OFFSET 0 4.33935 0
        }
      }
      JOINT FrontLegIKPole.R
      {
        OFFSET 0 27.4489 11.7029
        CHANNELS 6 Xposition Yposition Zposition Zrotation Xrotation Yrotation
        End Site
        {
          OFFSET 0 6.85387 0
        }
      }
    }
    JOINT SpineCtrl
    {
      OFFSET 0.635178 21.1139 -50.8686
      CHANNELS 6 Xposition Yposition Zposition Zrotation Xrotation Yrotation
      JOINT Spine2.001
      {
        OFFSET 0 0 0
        CHANNELS 6 Xposition Yposition Zposition Zrotation Xrotation Yrotation
        JOINT Spine2
        {
          OFFSET 0 12.1749 0
          CHANNELS 6 Xposition Yposition Zposition Zrotation Xrotation Yrotation
          JOINT Spine1
          {
            OFFSET 0 12.1749 0
            CHANNELS 6 Xposition Yposition Zposition Zrotation Xrotation Yrotation
            JOINT TailBottom
            {
              OFFSET 0 48.2991 5.34964
              CHANNELS 6 Xposition Yposition Zposition Zrotation Xrotation Yrotation
              End Site
              {
                OFFSET 0 0 0
              }
            }
            JOINT Tail1
            {
              OFFSET -0.574857 14.3966 0.537233
              CHANNELS 6 Xposition Yposition Zposition Zrotation Xrotation Yrotation
              JOINT Tail2
              {
                OFFSET 0 7.84149 0
                CHANNELS 6 Xposition Yposition Zposition Zrotation Xrotation Yrotation
                JOINT Tail3
                {
                  OFFSET 0 9.03055 0
                  CHANNELS 6 Xposition Yposition Zposition Zrotation Xrotation Yrotation
                  JOINT Tail4
                  {
                    OFFSET 0 8.20515 0
                    CHANNELS 6 Xposition Yposition Zposition Zrotation Xrotation Yrotation
                    JOINT Tail5
                    {
                      OFFSET 0 9.4978 0
                      CHANNELS 6 Xposition Yposition Zposition Zrotation Xrotation Yrotation
                      JOINT Tail6
                      {
                        OFFSET 0 6.51884 0
                        CHANNELS 6 Xposition Yposition Zposition Zrotation Xrotation Yrotation
                        End Site
                        {
                          OFFSET 0 6.10884 0
                        }
                      }
                    }
                  }
                }
              }
            }
            JOINT Bone
            {
              OFFSET 33.4069 38.6443 -2.41513
              CHANNELS 6 Xposition Yposition Zposition Zrotation Xrotation Yrotation
              JOINT TailTop
              {
                OFFSET 0 2.50112e-005 0
                CHANNELS 6 Xposition Yposition Zposition Zrotation Xrotation Yrotation
                End Site
                {
                  OFFSET 0 0 0
                }
              }
              JOINT Bone_end
              {
                OFFSET 0 12.2515 0
                CHANNELS 6 Xposition Yposition Zposition Zrotation Xrotation Yrotation
                End Site
                {
                  OFFSET 0 0 0
                }
              }
            }
            JOINT BackLeg1.L
            {
              OFFSET -1.91713 6.86269 -1.74095
              CHANNELS 6 Xposition Yposition Zposition Zrotation Xrotation Yrotation
              JOINT BackLeg2.L
              {
                OFFSET 0 10.1896 0
                CHANNELS 6 Xposition Yposition Zposition Zrotation Xrotation Yrotation
                JOINT BackLeg3.L
                {
                  OFFSET 0 27.6585 0
                  CHANNELS 6 Xposition Yposition Zposition Zrotation Xrotation Yrotation
                  JOINT BackLeg4.L
                  {
                    OFFSET 0 20.2079 0
                    CHANNELS 6 Xposition Yposition Zposition Zrotation Xrotation Yrotation
                    End Site
                    {
                      OFFSET 0 15.8172 0
                    }
                  }
                }
              }
            }
            JOINT BackLeg1.R
            {
              OFFSET -1.64678 6.86269 1.99861
              CHANNELS 6 Xposition Yposition Zposition Zrotation Xrotation Yrotation
              JOINT BackLeg2.R
              {
                OFFSET 0 11.0754 0
                CHANNELS 6 Xposition Yposition Zposition Zrotation Xrotation Yrotation
                JOINT BackLeg3.R
                {
                  OFFSET 0 25.8903 0
                  CHANNELS 6 Xposition Yposition Zposition Zrotation Xrotation Yrotation
                  JOINT BackLeg4.R
                  {
                    OFFSET 0 20.2079 0
                    CHANNELS 6 Xposition Yposition Zposition Zrotation Xrotation Yrotation
                    End Site
                    {
                      OFFSET 0 15.8171 0
                    }
                  }
                }
              }
            }
          }
        }
      }
      JOINT Spine3
      {
        OFFSET 0 0 0
        CHANNELS 6 Xposition Yposition Zposition Zrotation Xrotation Yrotation
        JOINT Neck
        {
          OFFSET 0 14.1391 0
          CHANNELS 6 Xposition Yposition Zposition Zrotation Xrotation Yrotation
          JOINT Head2
          {
            OFFSET 0 2.99801 0
            CHANNELS 6 Xposition Yposition Zposition Zrotation Xrotation Yrotation
            End Site
            {
              OFFSET 0 6.46164 0
            }
          }
        }
        JOINT HeadIK
        {
          OFFSET -0.175681 20.3563 -7.09281
          CHANNELS 6 Xposition Yposition Zposition Zrotation Xrotation Yrotation
          JOINT Head
          {
            OFFSET 0 0 0
            CHANNELS 6 Xposition Yposition Zposition Zrotation Xrotation Yrotation
            JOINT Ear.L
            {
              OFFSET 11.0469 5.26744 -12.0054
              CHANNELS 6 Xposition Yposition Zposition Zrotation Xrotation Yrotation
              End Site
              {
                OFFSET 0 10.1211 0
              }
            }
            JOINT Ear.R
            {
              OFFSET -8.84548 5.02071 -13.5443
              CHANNELS 6 Xposition Yposition Zposition Zrotation Xrotation Yrotation
              End Site
              {
                OFFSET 0 10.1211 0
              }
            }
          }
          JOINT Eyes.Base
          {
            OFFSET 0.675326 25.1229 -12.9166
            CHANNELS 6 Xposition Yposition Zposition Zrotation Xrotation Yrotation
            End Site
            {
              OFFSET 0 4.98183 0
            }
          }
          JOINT Eyes.Target
          {
            OFFSET 0.675326 25.1229 -12.9166
            CHANNELS 6 Xposition Yposition Zposition Zrotation Xrotation Yrotation
            End Site
            {
              OFFSET 0 10.8137 0
            }
          }
        }
        JOINT FrontLeg1.L
        {
          OFFSET 6.15836 4.29787 -0.644035
          CHANNELS 6 Xposition Yposition Zposition Zrotation Xrotation Yrotation
          JOINT FrontLeg2.L
          {
            OFFSET 0 18.7233 0
            CHANNELS 6 Xposition Yposition Zposition Zrotation Xrotation Yrotation
            JOINT FrontLeg3.L
            {
              OFFSET 0 16.9177 0
              CHANNELS 6 Xposition Yposition Zposition Zrotation Xrotation Yrotation
              JOINT FrontLeg4.L
              {
                OFFSET 0 10.6804 0
                CHANNELS 6 Xposition Yposition Zposition Zrotation Xrotation Yrotation
                End Site
                {
                  OFFSET 0 9.99857 0
                }
              }
            }
          }
        }
        JOINT FrontLeg1.R
        {
          OFFSET -5.81052 4.29786 -0.644037
          CHANNELS 6 Xposition Yposition Zposition Zrotation Xrotation Yrotation
          JOINT FrontLeg2.R
          {
            OFFSET 0 18.8001 0
            CHANNELS 6 Xposition Yposition Zposition Zrotation Xrotation Yrotation
            JOINT FrontLeg3.R
            {
              OFFSET 0 16.9176 0
              CHANNELS 6 Xposition Yposition Zposition Zrotation Xrotation Yrotation
              JOINT FrontLeg4.R
              {
                OFFSET 0 10.6804 0
                CHANNELS 6 Xposition Yposition Zposition Zrotation Xrotation Yrotation
                End Site
                {
                  OFFSET 0 9.99855 0
                }
              }
            }
          }
        }
      }
    }
  }
  JOINT Bone.001
  {
    OFFSET 0 -39.5765 2.47907
    CHANNELS 6 Xposition Yposition Zposition Zrotation Xrotation Yrotation
    End Site
    {
      OFFSET 0 9.50183 0
    }
  }
  JOINT Bone.002
  {
    OFFSET 6.39762 -39.5765 2.47907
    CHANNELS 6 Xposition Yposition Zposition Zrotation Xrotation Yrotation
    End Site
    {
      OFFSET 0 5.86173 0
    }
  }
}
MOTION
Frames:	4
Frame Time:	0.0416667
1.9679 50.7869 13.0653 -180 -90 -180 -0.635206 16.8572 -51.0592 -180 7.01671e-015 180 10.7636 29.3767 -2.71292 -7.01671e-015 7.01671e-015 -180 -1.92394e-006 1.05817e-005 -3.84788e-006 -7.41201e-006 -35.3567 180 -1.92394e-006 27.4489 11.7029 0 0 -1.92796e-021 14.1749 -8.50328 -2.96314 -7.01671e-015 7.01671e-015 -180 1.1933e-006 -9.61969e-006 -3.84788e-006 -2.3365e-006 -29.4393 -180 0.227833 17.573 11.6014 -1.80794e-028 0 3.24417e-012 -12.9044 -8.50328 -2.96312 -7.01671e-015 7.01671e-015 -180 1.1933e-006 1.92394e-006 1.15436e-005 1.45869e-006 -29.4393 -180 -0.227834 17.573 11.6014 -3.36754e-037 -1.51661e-021 -1.27222e-014 -9.4932 29.3767 -2.7129 -7.01671e-015 7.01671e-015 -180 -2.88591e-006 -2.88591e-006 -3.84788e-006 1.35321e-006 -35.3568 -180 0 27.4489 11.7029 0 0 -1.92796e-021 0.635178 21.0449 -50.9304 180 -79.4416 180 2.74751e-008 -2.91597e-006 -2.01036e-007 -7.60454e-005 -79.1304 -90.0009 -6.18819e-011 12.1749 5.73378e-014 2.24121e-006 2.69612e-007 3.01466e-007 -6.87269e-009 12.1749 -2.54661e-013 -21.2047 -0.000306906 -4.13418 3.48714e-006 48.2991 5.34964 -0.450778 -21.691 -40.3435 -0.478177 14.6581 0.530243 -58.6671 -4.45037 1.92106 -4.14943e-006 7.8415 -1.50308e-008 -8.15483 -0.470958 -0.034809 -8.26104e-006 9.03055 2.10431e-007 7.66308 0.442929 -0.0463756 -1.5186e-006 8.20515 -5.63654e-008 10.6884 0.619184 -0.0639075 -3.45781e-006 9.4978 1.54066e-007 9.20546 0.535166 -0.0426673 3.27301e-006 6.51884 1.33398e-007 0.0904687 -0.0981933 -0.0564464 33.4069 38.6443 -2.41513 21.2196 1.43955 3.85405 -1.53915e-005 2.50112e-005 1.68345e-006 1.90756e-006 -0.249878 -4.67396e-008 -1.43345e-014 12.2515 4.47952e-016 -0 0 9.70628e-020 -1.91713 6.86269 -1.74095 39.2826 -26.2641 -127.853 9.61969e-007 10.1896 -8.41723e-007 -132.732 69.0342 -90.5871 1.44295e-006 27.6585 -3.24665e-006 -104.112 83.1729 120.176 -6.61354e-007 20.2079 -2.76566e-006 -2.38984 -81.4256 -0.23236 -1.64678 6.86269 1.99861 50.3492 29.5578 -52.5442 -4.80985e-007 11.0754 -3.36689e-006 114.354 75.05 100.917 -9.61969e-007 25.8903 -3.84788e-006 128.816 81.4382 -145.764 3.60739e-007 20.2078 4.32886e-006 2.38958 -81.4255 0.232232 2.74774e-008 -1.90891e-006 -5.16682e-007 6.98365e-005 78.912 -5.73702e-005 1.14676e-013 14.1391 1.20247e-007 10.7136 -50.9195 17.5103 -9.01846e-008 2.99801 1.49556e-006 -7.57642 5.13312 -10.7609 -0.175681 20.3563 -7.09281 -0.631438 39.2148 3.56413 7.36508e-007 -8.512e-006 -1.28419e-006 -0.184782 0.630238 1.26632 11.0469 5.26744 -12.0054 -80.468 -53.9038 -171.486 -8.84548 5.02071 -13.5443 79.382 -62.6168 168.546 0.675326 25.1229 -12.9166 10.3641 72.1294 169.636 0.675326 25.1228 -12.9166 10.3637 72.1295 169.636 6.15837 4.29787 -0.644035 -48.4226 73.5339 44.3583 -1.68345e-006 18.7233 -9.31908e-007 6.69698 63.1719 6.22528 -1.27982e-007 16.9177 -2.63626e-007 -6.81804e-005 -33.6065 1.26958e-005 -3.37679e-008 10.6804 -1.49666e-006 -1.7935e-005 -10.5017 -5.20328e-005 -5.81052 4.29786 -0.644037 50.7972 72.7593 -48.5754 0 18.8001 2.07425e-006 -11.5179 62.8977 -1.97879 1.91543e-007 16.9176 7.367e-007 -0.00014882 -33.6063 0.000122154 1.84459e-007 10.6804 3.15059e-007 -2.85747e-005 -10.5016 -0.000143359 4.20862e-006 -39.5765 2.47907 -180 90 -180 6.39762 -39.5765 2.47907 -180 90 -180 
1.9679 50.7869 13.0653 -180 -90 -180 -0.635206 16.8572 -51.0592 -180 7.01671e-015 180 10.7636 29.3767 -2.71292 -7.01671e-015 7.01671e-015 -180 -2.0041e-006 1.06351e-005 -4.70296e-006 -7.41201e-006 -35.3567 180 -1.92394e-006 27.4489 11.7029 0 0 -1.92796e-021 14.1749 -8.50328 -2.96314 -0.0176702 -1.78053e-007 -180 1.11153e-006 -9.14493e-006 -3.63411e-006 -2.34852e-006 -29.4393 -180 0.227833 17.573 11.6014 3.40299e-027 -5.97177e-014 3.26498e-012 -12.9044 -8.50328 -2.96312 0.0144282 9.6992e-007 -180 1.35202e-006 1.66295e-006 1.06886e-005 1.45415e-006 -29.4393 -180 -0.227834 17.573 11.6014 3.10601e-018 7.58303e-022 -1.20154e-014 -9.4932 29.3767 -2.7129 -7.01671e-015 7.01671e-015 -180 -2.64542e-006 -2.40492e-006 -3.42034e-006 1.35321e-006 -35.3568 -180 0 27.4489 11.7029 0 0 -1.92796e-021 0.635179 21.0449 -50.9099 180 -79.4416 180 2.04755e-007 -2.91597e-006 -2.01036e-007 0.000318596 -79.1304 -90.0006 4.33605e-008 12.1749 -5.95776e-013 2.24121e-006 7.98978e-006 -3.29069e-007 -5.99367e-008 12.1749 1.17431e-012 -21.2047 -0.00029428 -4.13417 3.48714e-006 48.2991 5.34964 -0.450778 -21.691 -40.3435 -0.478177 14.6581 0.530243 -58.6671 -4.45037 1.92106 -3.88634e-006 7.8415 5.26077e-008 -8.15483 -0.470663 -0.034809 -7.61507e-006 9.03055 1.45323e-007 7.66308 0.442929 -0.0463756 -1.42088e-006 8.20628 -1.86882e-007 10.6884 0.619184 -0.0639075 -3.45981e-006 9.49839 1.25498e-007 9.20546 0.535166 -0.0426673 2.94517e-006 6.51857 5.25169e-008 0.0904688 -0.0981933 -0.0564034 32.5107 40.9239 -2.35034 21.2196 1.43955 3.85405 -1.47502e-005 2.47974e-005 1.37615e-006 1.82499e-006 -0.249878 -1.86389e-007 -1.43345e-014 12.2515 2.23976e-016 4.96962e-017 0 -0 -1.91713 6.86269 -1.74153 39.2826 -26.2641 -127.853 9.08527e-007 10.1896 -9.15207e-007 -132.62 69.0378 -90.6484 1.17407e-006 27.6585 -2.99947e-006 -104.121 83.1871 120.167 -7.38178e-007 20.2079 -2.68383e-006 -2.38984 -81.4256 -0.232361 -1.64678 6.86269 1.99809 50.3492 29.5578 -52.5442 -4.00821e-007 11.0754 -3.1932e-006 114.196 75.0511 101.026 -8.81805e-007 25.8903 -3.51386e-006 128.78 81.4645 -145.713 3.20656e-007 20.2078 4.20361e-006 2.38959 -81.4255 0.232233 2.74774e-008 -1.89638e-006 -5.14699e-007 6.97445e-005 78.8943 -5.72799e-005 1.11316e-013 14.1391 7.34847e-008 10.7136 -50.9195 17.5103 -8.18342e-008 2.99801 1.43314e-006 -7.57638 5.1331 -10.7609 -0.175681 20.3563 -7.09281 -0.631438 39.2148 3.56413 7.22834e-007 -8.35192e-006 -1.42098e-006 -0.184782 0.630238 1.26632 11.0469 5.26744 -12.0054 -80.468 -53.9038 -171.486 -8.84548 5.02071 -13.5443 79.382 -62.6168 168.546 0.675326 25.1229 -12.9166 10.3641 72.1294 169.636 0.675326 25.1228 -12.9166 10.3637 72.1295 169.636 6.15837 4.29787 -0.644035 -48.4226 73.5339 44.3583 -1.61664e-006 18.7233 -7.54879e-007 6.69698 63.1719 6.22528 -8.079e-008 16.9177 -4.52731e-007 -6.87417e-005 -33.6146 1.23459e-005 -1.83033e-009 10.6804 -1.30914e-006 -1.81479e-005 -10.5017 -5.20617e-005 -5.81052 4.29786 -0.644037 50.7972 72.7593 -48.5754 2.67214e-008 18.8001 1.95233e-006 -11.5179 62.8977 -1.97879 1.14099e-007 16.9176 6.85752e-007 -0.000162665 -33.6145 0.000110579 1.97593e-007 10.6804 3.70622e-007 -2.89472e-005 -10.5016 -0.000143447 4.20862e-006 -39.5765 2.47907 -180 90 -180 6.39762 -39.5765 2.47907 -180 90 -180 
1.9679 50.7869 13.0653 -180 -90 -180 -0.635206 16.8572 -51.0592 -180 7.01671e-015 180 10.7636 29.3767 -2.71292 -7.01671e-015 7.01671e-015 -180 -2.08427e-006 1.06886e-005 -5.55805e-006 -7.41201e-006 -35.3567 180 -1.92394e-006 27.4489 11.7029 0 0 -1.92796e-021 14.1749 -8.50328 -2.96314 -0.141381 -3.56106e-007 -180 1.02975e-006 -8.67017e-006 -3.42034e-006 -2.36054e-006 -29.4393 -180 0.227833 17.573 11.6014 2.48481e-017 -1.19435e-013 3.28579e-012 -12.9044 -8.50328 -2.96312 0.141381 1.93984e-006 -180 1.51074e-006 1.40196e-006 9.83347e-006 1.44961e-006 -29.4393 -180 -0.227834 17.573 11.6014 -1.49669e-037 -7.58303e-022 -1.13086e-014 -9.4932 29.3767 -2.7129 -7.01671e-015 7.01671e-015 -180 -2.40492e-006 -1.92394e-006 -2.99279e-006 1.35321e-006 -35.3568 -180 0 27.4489 11.7029 0 0 -1.92796e-021 0.635179 21.0449 -50.8895 180 -79.4416 180 3.82034e-007 -2.91597e-006 -2.01036e-007 0.000705607 -79.1304 -90.0002 8.6783e-008 12.1749 -1.24867e-012 2.24121e-006 1.57099e-005 -9.59604e-007 -1.13001e-007 12.1749 2.60238e-012 -21.2047 -0.000281654 -4.13417 3.48714e-006 48.2991 5.34964 -0.450778 -21.691 -40.3435 -0.478177 14.6581 0.530243 -54.6773 -4.27454 2.19897 -3.62325e-006 7.87126 1.20246e-007 -6.95524 -0.470367 -0.029807 -6.96908e-006 9.03276 8.01919e-008 6.2199 0.421012 -0.0387295 -1.32316e-006 8.20943 -3.17457e-007 8.86667 0.60142 -0.0524211 -3.46182e-006 9.50131 9.69151e-008 7.67479 0.521976 -0.0346057 2.6171e-006 6.51991 -2.84062e-008 0.142662 -0.0910475 -0.0563604 30.1059 46.8627 -2.17648 21.2196 1.43955 3.85405 -1.41089e-005 2.45837e-005 1.06885e-006 1.74242e-006 -0.249878 -3.26039e-007 0 12.2515 0 1.05236e-038 1.2424e-017 -4.85314e-020 -1.91713 6.86269 -1.7421 39.2826 -26.2641 -127.853 8.55084e-007 10.1896 -9.88691e-007 -132.508 69.0414 -90.7097 9.05187e-007 27.6585 -2.7523e-006 -104.545 83.2615 120.458 -8.15002e-007 20.2079 -2.60199e-006 -2.38984 -81.4256 -0.232362 -1.64678 6.86269 1.99756 50.3492 29.5578 -52.5442 -3.20656e-007 11.0754 -3.01951e-006 114.038 75.0521 101.135 -8.01641e-007 25.8903 -3.17984e-006 129.239 81.5278 -146.035 2.80574e-007 20.2079 4.07835e-006 2.38959 -81.4255 0.232234 2.74774e-008 -1.88386e-006 -5.12715e-007 6.96527e-005 78.8766 -5.71899e-005 1.08404e-013 14.1391 2.67223e-008 10.7135 -50.9195 17.5103 -7.34838e-008 2.99801 1.37072e-006 -7.57634 5.13307 -10.7609 -0.175681 20.3563 -7.09281 -0.631438 39.2148 3.56413 7.0916e-007 -8.19184e-006 -1.55777e-006 -0.184782 0.630238 1.26632 11.0469 5.26744 -12.0054 -80.468 -53.9038 -171.486 -8.84548 5.02071 -13.5443 79.382 -62.6168 168.546 0.675326 25.1229 -12.9166 10.364 72.1294 169.636 0.675326 25.1228 -12.9166 10.3637 72.1295 169.636 6.15837 4.29787 -0.644035 -48.4226 73.5339 44.3583 -1.54984e-006 18.7233 -5.7785e-007 6.69698 63.1719 6.22528 -3.35978e-008 16.9177 -6.41835e-007 -6.93031e-005 -33.6227 1.1996e-005 3.01072e-008 10.6804 -1.12161e-006 -1.83609e-005 -10.5017 -5.20907e-005 -5.81052 4.29786 -0.644037 50.7972 72.7593 -48.5754 5.34428e-008 18.8001 1.83041e-006 -11.5179 62.8977 -1.97879 3.66538e-008 16.9176 6.34803e-007 -0.000176514 -33.6226 9.90013e-005 2.10726e-007 10.6804 4.26185e-007 -2.93197e-005 -10.5016 -0.000143536 4.20862e-006 -39.5765 2.47907 -180 90 -180 6.39762 -39.5765 2.47907 -180 90 -180 
1.9679 50.7869 13.0653 -180 -90 -180 -0.635206 16.8572 -51.0592 -180 7.01671e-015 180 10.7636 29.3767 -2.71292 -7.01671e-015 7.01671e-015 -180 -2.16443e-006 1.0742e-005 -6.41313e-006 -7.41201e-006 -35.3567 180 -1.92394e-006 27.4489 11.7029 0 0 -1.92796e-021 14.2072 -3.7693 -5.06723 -0.399059 -5.34159e-007 -180 9.47982e-007 -8.19541e-006 -3.20656e-006 -2.37256e-006 -29.4393 -180 0.227832 17.573 11.6014 -4.96962e-017 -1.79153e-013 3.30661e-012 -12.9044 -8.50328 -2.96312 0.509231 2.90976e-006 -180 1.66946e-006 1.14097e-006 8.97838e-006 1.00568e-005 -29.4393 -180 -0.227835 17.573 11.6014 -1.98785e-016 7.58303e-022 -1.06018e-014 -9.4932 29.3767 -2.7129 -7.01671e-015 7.01671e-015 -180 -2.16443e-006 -1.44295e-006 -2.56525e-006 1.35321e-006 -35.3568 -180 0 27.4489 11.7029 0 0 -1.92796e-021 0.635179 21.0449 -50.869 180 -79.4416 180 5.59314e-007 -2.91597e-006 -2.01036e-007 0.00110025 -79.1304 -89.9998 1.30205e-007 12.1749 -1.90156e-012 2.24121e-006 2.34301e-005 -1.59014e-006 -1.66065e-007 12.1749 4.0309e-012 -21.2047 -0.000269027 -4.13417 3.48714e-006 48.2991 5.34964 -0.450778 -21.691 -40.3435 -0.478177 14.6581 0.530243 -44.9205 -3.75054 2.82372 -3.36016e-006 7.92214 1.87885e-007 -3.80401 -0.465895 -0.0166578 -6.32308e-006 9.03586 1.50386e-008 2.76342 0.338643 -0.0208787 -1.22544e-006 8.21338 -4.4809e-007 4.15688 0.51009 -0.0233931 -3.46382e-006 9.50515 6.83177e-008 4.09647 0.503095 -0.0176019 2.28881e-006 6.52188 -1.09371e-007 0.552042 -0.00845695 -0.0560295 27.5373 52.7378 -1.99079 21.2196 1.43955 3.85405 -1.34676e-005 2.43699e-005 7.61559e-007 1.65985e-006 -0.249878 -4.65688e-007 0 12.2515 2.23976e-016 -4.96962e-017 -1.2424e-017 -4.85314e-020 -1.91713 6.86269 -1.74267 39.2826 -26.2641 -127.853 8.01641e-007 10.1896 -1.06217e-006 -132.396 69.0449 -90.771 6.36303e-007 27.6585 -2.50513e-006 -67.0502 84.3132 82.713 -8.91826e-007 20.2079 -2.52016e-006 -176.101 -84.7175 -173.9 -1.64678 6.86269 1.99704 50.3492 29.5578 -52.5442 -2.40492e-007 11.0754 -2.84583e-006 113.88 75.0531 101.244 -7.21477e-007 25.8903 -2.84583e-006 130.785 81.6682 -147.181 2.40492e-007 20.2079 3.95309e-006 2.38959 -81.4255 0.232235 2.74774e-008 -1.87133e-006 -5.10732e-007 6.95613e-005 78.8589 -5.71002e-005 1.04821e-013 14.1391 -2.00401e-008 10.7135 -50.9195 17.5102 -6.51334e-008 2.99801 1.3083e-006 -7.5763 5.13304 -10.7609 -0.175681 20.3563 -7.09281 -0.631438 39.2148 3.56413 6.95486e-007 -8.03176e-006 -1.69456e-006 -0.184782 0.630238 1.26632 11.0469 5.26744 -12.0054 -80.468 -53.9038 -171.486 -8.84548 5.02071 -13.5443 79.382 -62.6168 168.546 0.675326 25.1229 -12.9166 10.364 72.1294 169.636 0.675326 25.1228 -12.9166 10.3637 72.1295 169.636 6.15837 4.29787 -0.644035 -48.4226 73.5339 44.3583 -1.48304e-006 18.7233 -4.00821e-007 6.69699 63.1719 6.22527 1.35943e-008 16.9177 -8.3094e-007 -6.98646e-005 -33.6308 1.1646e-005 6.20447e-008 10.6804 -9.34079e-007 -1.85738e-005 -10.5017 -5.21197e-005 -5.81052 4.29786 -0.644037 50.7972 72.7593 -48.5754 8.01641e-008 18.8001 1.7085e-006 -11.5179 62.8977 -1.97879 -4.07909e-008 16.9176 5.83855e-007 -0.000190366 -33.6307 8.74217e-005 2.2386e-007 10.6804 4.81748e-007 -2.96922e-005 -10.5016 -0.000143624 4.20862e-006 -39.5765 2.47907 -180 90 -180 6.39762 -39.5765 2.47907 -180 90 -180 
